<svg width="143" height="29" viewBox="0 0 143 29" fill="none" xmlns="http://www.w3.org/2000/svg">
<g opacity="0.6">
<path d="M21.3558 12.4319C20.9581 12.8323 20.6535 13.3155 20.4638 13.847C20.274 14.3786 20.2038 14.9455 20.2581 15.5074L20.2392 15.4885C20.295 16.1498 20.2058 16.8154 19.978 17.4387C19.7502 18.062 19.3891 18.6281 18.92 19.0974C18.451 19.5667 17.8852 19.9279 17.2622 20.1559C16.6391 20.3838 15.9739 20.473 15.3129 20.4172L15.3318 20.4361C14.5411 20.3625 13.7469 20.5346 13.0576 20.9291C12.3683 21.3236 11.8173 21.9211 11.4799 22.6404C11.1424 23.3596 11.0349 24.1654 11.172 24.948C11.3091 25.7306 11.6841 26.4518 12.2459 27.0134C12.8076 27.5749 13.5289 27.9495 14.3112 28.0859C15.0935 28.2223 15.8989 28.114 16.6174 27.7758C17.336 27.4375 17.9328 26.8858 18.3264 26.1957C18.7201 25.5057 18.8914 24.711 18.8171 23.92L18.8371 23.9389C18.7813 23.2775 18.8704 22.612 19.0982 21.9887C19.3261 21.3653 19.6871 20.7993 20.1562 20.33C20.6253 19.8607 21.191 19.4994 21.8141 19.2715C22.4371 19.0435 23.1023 18.9544 23.7633 19.0102L23.7434 18.9913C24.3893 19.0494 25.0394 18.9435 25.6335 18.6833C26.2276 18.4231 26.7464 18.017 27.1419 17.5028C27.5373 16.9886 27.7967 16.3828 27.8958 15.7416C27.995 15.1004 27.9308 14.4445 27.7091 13.8348C27.4874 13.225 27.1155 12.6811 26.6278 12.2535C26.1401 11.8258 25.5524 11.5282 24.9192 11.3883C24.2859 11.2484 23.6276 11.2707 23.0052 11.4532C22.3829 11.6356 21.8166 11.9723 21.359 12.4319H21.3558Z" fill="#1D2130"/>
<path d="M13.6137 17.9601L13.5938 17.9412C14.1556 17.9979 14.723 17.9289 15.2549 17.7393C15.7868 17.5496 16.2699 17.2441 16.6694 16.8448C17.0688 16.4455 17.3745 15.9623 17.5645 15.4303C17.7544 14.8983 17.8238 14.3307 17.7676 13.7685L17.7875 13.7874C17.7317 13.1261 17.8209 12.4605 18.0487 11.8372C18.2765 11.2139 18.6376 10.6478 19.1067 10.1785C19.5757 9.70921 20.1415 9.34798 20.7645 9.12003C21.3876 8.89208 22.0528 8.80291 22.7138 8.85873L22.6939 8.83984C23.4846 8.91413 24.2791 8.74257 24.9688 8.34854C25.6585 7.95452 26.21 7.35721 26.5479 6.6381C26.8859 5.91899 26.9939 5.11308 26.8572 4.3303C26.7205 3.54751 26.3458 2.82597 25.7842 2.26408C25.2226 1.70218 24.5014 1.3273 23.719 1.19056C22.9366 1.05382 22.1311 1.16188 21.4123 1.5C20.6936 1.83812 20.0966 2.38983 19.7027 3.0799C19.3089 3.76997 19.1374 4.56478 19.2117 5.35594L19.1928 5.33598C19.2488 5.99737 19.1598 6.66301 18.932 7.28642C18.7042 7.90983 18.3432 8.47597 17.8741 8.94532C17.405 9.41466 16.8391 9.77589 16.216 10.0038C15.5929 10.2317 14.9276 10.3207 14.2665 10.2647L14.2854 10.2846C13.7236 10.228 13.1562 10.297 12.6243 10.4866C12.0924 10.6762 11.6093 10.9818 11.2098 11.3811C10.8104 11.7804 10.5047 12.2635 10.3147 12.7956C10.1248 13.3276 10.0554 13.8952 10.1116 14.4573L10.0927 14.4384C10.1483 15.0997 10.0591 15.7652 9.83118 16.3885C9.60328 17.0117 9.24222 17.5777 8.77319 18.047C8.30416 18.5162 7.73844 18.8775 7.11551 19.1055C6.49258 19.3335 5.82743 19.4228 5.16645 19.3671L5.18534 19.386C4.39458 19.3117 3.60015 19.4833 2.91043 19.8773C2.2207 20.2714 1.66925 20.8687 1.3313 21.5878C0.993348 22.3069 0.885342 23.1128 1.02202 23.8956C1.15869 24.6784 1.53339 25.3999 2.09501 25.9618C2.65662 26.5237 3.37781 26.8986 4.16021 27.0353C4.94261 27.1721 5.74812 27.064 6.46688 26.7259C7.18563 26.3878 7.78264 25.836 8.17648 25.146C8.57031 24.4559 8.74179 23.6611 8.66753 22.8699L8.68747 22.8888C8.63167 22.2275 8.7208 21.5619 8.94864 20.9386C9.17647 20.3153 9.53753 19.7492 10.0066 19.2799C10.4757 18.8106 11.0415 18.4494 11.6645 18.2214C12.2875 17.9935 12.9527 17.9043 13.6137 17.9601Z" fill="#1D2130"/>
<path d="M6.58015 15.8528C6.97793 15.4525 7.28247 14.9693 7.47205 14.4377C7.66163 13.9061 7.73156 13.3392 7.67686 12.7774L7.6968 12.7963C7.64096 12.1347 7.73013 11.469 7.95809 10.8455C8.18605 10.222 8.54729 9.65582 9.0166 9.18648C9.48591 8.71714 10.052 8.35596 10.6752 8.12815C11.2985 7.90035 11.964 7.81142 12.6252 7.86757L12.6052 7.84867C13.3957 7.92276 14.1898 7.7511 14.8792 7.3571C15.5686 6.9631 16.1198 6.36594 16.4575 5.64706C16.7953 4.92817 16.9032 4.12255 16.7665 3.34006C16.6299 2.55757 16.2553 1.83631 15.6939 1.27462C15.1325 0.712931 14.4115 0.338167 13.6294 0.201432C12.8473 0.0646966 12.0421 0.172648 11.3236 0.510563C10.605 0.848478 10.0082 1.39991 9.61437 2.08965C9.22057 2.7794 9.049 3.57389 9.12305 4.36477L9.10416 4.34587C9.15996 5.00721 9.07083 5.67277 8.84299 6.2961C8.61516 6.91942 8.2541 7.48549 7.78503 7.95479C7.31596 8.42409 6.75017 8.78532 6.12715 9.01327C5.50413 9.24122 4.8389 9.33039 4.17789 9.27457L4.19677 9.29347C3.55089 9.23552 2.90084 9.34162 2.30685 9.60193C1.71286 9.86225 1.19416 10.2684 0.79881 10.7826C0.403458 11.2969 0.144249 11.9027 0.0452039 12.5439C-0.0538415 13.1851 0.0104804 13.8409 0.23221 14.4506C0.453939 15.0603 0.825902 15.6041 1.31363 16.0317C1.80136 16.4592 2.38907 16.7567 3.0223 16.8966C3.65553 17.0364 4.3138 17.0141 4.9361 16.8316C5.55841 16.6491 6.12461 16.3125 6.58225 15.8528H6.58015Z" fill="#1D2130"/>
<path d="M39.09 5.38008H42.2069V20.5557H39.09V5.38008Z" fill="#1D2130"/>
<path d="M43.9722 15.3593C43.9678 14.2687 44.2871 13.2014 44.8895 12.2925C45.4919 11.3836 46.3504 10.674 47.3562 10.2536C48.362 9.83326 49.4699 9.72101 50.5395 9.93109C51.6092 10.1412 52.5924 10.6641 53.3647 11.4338C54.1371 12.2034 54.6637 13.185 54.878 14.2543C55.0923 15.3236 54.9845 16.4325 54.5684 17.4405C54.1522 18.4485 53.4465 19.3102 52.5404 19.9166C51.6344 20.5229 50.5689 20.8466 49.4788 20.8466C48.7553 20.8549 48.0373 20.7187 47.3669 20.4462C46.6965 20.1736 46.0872 19.7701 45.5745 19.2592C45.0618 18.7483 44.656 18.1402 44.3809 17.4706C44.1058 16.801 43.9668 16.0833 43.9722 15.3593ZM51.8685 15.3593C51.8555 14.8892 51.7043 14.4334 51.4338 14.0488C51.1632 13.6643 50.7854 13.368 50.3475 13.1971C49.9096 13.0262 49.4311 12.9882 48.9718 13.0879C48.5124 13.1877 48.0927 13.4206 47.7649 13.7577C47.4372 14.0948 47.2161 14.5211 47.1292 14.9833C47.0423 15.4454 47.0935 15.9229 47.2764 16.3561C47.4593 16.7894 47.7657 17.159 48.1575 17.4189C48.5492 17.6788 49.0088 17.8174 49.4788 17.8174C49.8007 17.826 50.1209 17.7677 50.4192 17.6464C50.7175 17.525 50.9874 17.3431 51.2119 17.1121C51.4365 16.8812 51.6107 16.6062 51.7237 16.3045C51.8367 16.0028 51.886 15.681 51.8685 15.3593Z" fill="#1D2130"/>
<path d="M67.4082 10.1618V20.0318C67.4082 23.5241 64.6858 25.0004 61.9225 25.0004C60.9496 25.0733 59.9754 24.8766 59.1068 24.4321C58.2382 23.9876 57.5087 23.3123 56.9983 22.4804L59.6577 20.9422C59.8722 21.3758 60.214 21.7336 60.6373 21.9676C61.0606 22.2016 61.5453 22.3006 62.0264 22.2515C62.3339 22.2941 62.647 22.267 62.9427 22.1722C63.2383 22.0774 63.5088 21.9173 63.7342 21.7038C63.9596 21.4903 64.1342 21.2288 64.2449 20.9386C64.3557 20.6485 64.3998 20.3371 64.3741 20.0276V19.0774C64.0091 19.5242 63.5445 19.8792 63.0176 20.1138C62.4907 20.3485 61.9161 20.4564 61.34 20.4287C59.9692 20.3855 58.669 19.8102 57.7146 18.8248C56.7602 17.8393 56.2265 16.521 56.2265 15.1488C56.2265 13.7766 56.7602 12.4583 57.7146 11.4728C58.669 10.4873 59.9692 9.91211 61.34 9.86886C61.9161 9.8412 62.4907 9.94904 63.0176 10.1837C63.5445 10.4184 64.0091 10.7734 64.3741 11.2202V10.1597L67.4082 10.1618ZM64.3752 15.1504C64.3961 14.6478 64.2662 14.1504 64.0023 13.7223C63.7383 13.2942 63.3523 12.9549 62.894 12.7481C62.4357 12.5414 61.926 12.4765 61.4306 12.562C60.9351 12.6475 60.4766 12.8794 60.1139 13.2278C59.7513 13.5762 59.5012 14.0252 59.3958 14.517C59.2904 15.0089 59.3345 15.521 59.5225 15.9875C59.7105 16.4541 60.0337 16.8537 60.4506 17.1348C60.8674 17.416 61.3589 17.566 61.8616 17.5654C62.1891 17.5882 62.5178 17.5422 62.8264 17.4303C63.1351 17.3184 63.4169 17.143 63.6536 16.9155C63.8904 16.688 64.077 16.4134 64.2012 16.1094C64.3255 15.8054 64.3847 15.4787 64.3752 15.1504Z" fill="#1D2130"/>
<path d="M69.1734 15.3593C69.169 14.2687 69.4882 13.2014 70.0907 12.2925C70.6931 11.3836 71.5516 10.674 72.5574 10.2536C73.5632 9.83326 74.6711 9.72101 75.7407 9.93109C76.8103 10.1412 77.7936 10.6641 78.5659 11.4338C79.3382 12.2034 79.8649 13.185 80.0792 14.2543C80.2934 15.3236 80.1857 16.4325 79.7695 17.4405C79.3534 18.4485 78.6476 19.3102 77.7416 19.9166C76.8356 20.5229 75.77 20.8466 74.68 20.8466C73.9564 20.8549 73.2385 20.7187 72.5681 20.4462C71.8977 20.1736 71.2884 19.7701 70.7757 19.2592C70.263 18.7483 69.8572 18.1402 69.5821 17.4706C69.307 16.801 69.168 16.0833 69.1734 15.3593ZM77.0697 15.3593C77.0567 14.8892 76.9055 14.4334 76.6349 14.0488C76.3644 13.6643 75.9866 13.368 75.5487 13.1971C75.1108 13.0262 74.6323 12.9882 74.1729 13.0879C73.7136 13.1877 73.2938 13.4206 72.9661 13.7577C72.6384 14.0948 72.4172 14.5211 72.3303 14.9833C72.2435 15.4454 72.2946 15.9229 72.4775 16.3561C72.6604 16.7894 72.9669 17.159 73.3586 17.4189C73.7504 17.6788 74.21 17.8174 74.68 17.8174C75.0019 17.826 75.3221 17.7677 75.6204 17.6464C75.9187 17.525 76.1886 17.3431 76.4131 17.1121C76.6376 16.8812 76.8119 16.6062 76.9249 16.3045C77.0379 16.0028 77.0872 15.681 77.0697 15.3593Z" fill="#1D2130"/>
<path d="M81.6402 7.37614C81.6402 7.00608 81.7499 6.64432 81.9554 6.33662C82.1609 6.02892 82.4529 5.78909 82.7947 5.64747C83.1364 5.50585 83.5124 5.4688 83.8752 5.541C84.238 5.61319 84.5712 5.7914 84.8328 6.05308C85.0943 6.31476 85.2724 6.64815 85.3446 7.01111C85.4167 7.37407 85.3797 7.75028 85.2382 8.09218C85.0966 8.43408 84.8569 8.72631 84.5494 8.93191C84.2418 9.1375 83.8802 9.24725 83.5103 9.24725C83.0159 9.24232 82.543 9.04361 82.1934 8.69377C81.8437 8.34393 81.6451 7.87087 81.6402 7.37614ZM81.955 10.1618H85.073V20.5568H81.9508L81.955 10.1618Z" fill="#1D2130"/>
<path d="M98.5317 15.3593C98.5677 16.0463 98.4676 16.7336 98.2372 17.3818C98.0068 18.03 97.6506 18.6262 97.1891 19.1361C96.7275 19.6461 96.1698 20.0597 95.548 20.3533C94.9261 20.6468 94.2524 20.8145 93.5655 20.8466C92.9879 20.8781 92.4105 20.7807 91.8752 20.5613C91.3399 20.3419 90.8601 20.0061 90.4706 19.5782V24.7137H87.3536V10.1618H90.4706V11.1383C90.8603 10.7107 91.3401 10.3752 91.8754 10.156C92.4107 9.93679 92.988 9.83942 93.5655 9.87094C94.2525 9.90293 94.9264 10.0705 95.5484 10.3641C96.1704 10.6577 96.7282 11.0714 97.1898 11.5815C97.6513 12.0916 98.0075 12.688 98.2378 13.3363C98.4681 13.9847 98.568 14.6722 98.5317 15.3593ZM95.4147 15.3593C95.4025 14.8728 95.2472 14.4007 94.9682 14.0021C94.6891 13.6035 94.2988 13.2961 93.846 13.1183C93.3932 12.9406 92.898 12.9004 92.4225 13.0028C91.947 13.1053 91.5122 13.3457 91.1727 13.6941C90.8331 14.0425 90.6037 14.4834 90.5134 14.9616C90.423 15.4398 90.4756 15.934 90.6646 16.3824C90.8536 16.8308 91.1705 17.2135 91.5758 17.4825C91.9811 17.7516 92.4568 17.8951 92.9432 17.895C93.2771 17.9099 93.6104 17.854 93.9212 17.7309C94.232 17.6079 94.5133 17.4205 94.7467 17.1811C94.9801 16.9417 95.1602 16.6556 95.2753 16.3416C95.3905 16.0277 95.438 15.6929 95.4147 15.3593Z" fill="#1D2130"/>
<path d="M108.15 17.4373C108.15 19.8281 106.073 20.8466 103.829 20.8466C102.923 20.9288 102.012 20.7369 101.216 20.2959C100.42 19.8549 99.7736 19.185 99.3618 18.3728L102.062 16.8346C102.171 17.21 102.406 17.5366 102.727 17.7598C103.048 17.983 103.435 18.0893 103.825 18.061C104.572 18.061 104.947 17.8321 104.947 17.4173C104.947 16.2728 99.8351 16.8766 99.8351 13.2803C99.8351 11.0134 101.747 9.87097 103.908 9.87097C104.72 9.84525 105.525 10.038 106.237 10.4292C106.95 10.8203 107.544 11.3955 107.959 12.0949L105.3 13.5292C105.183 13.2569 104.989 13.025 104.742 12.8623C104.494 12.6997 104.204 12.6136 103.908 12.6146C103.368 12.6146 103.035 12.8246 103.035 13.1963C103.039 14.3818 108.15 13.5911 108.15 17.4373Z" fill="#1D2130"/>
<path d="M119.536 10.1618V20.5568H116.419V19.5793C116.059 20.0106 115.603 20.3505 115.087 20.571C114.57 20.7915 114.009 20.8863 113.449 20.8477C111.35 20.8477 109.566 19.3514 109.566 16.5427V10.1618H112.683V16.0859C112.657 16.3335 112.685 16.5838 112.765 16.8194C112.846 17.0549 112.977 17.2702 113.149 17.4501C113.321 17.6299 113.53 17.7702 113.761 17.861C113.993 17.9518 114.242 17.991 114.49 17.9759C115.633 17.9759 116.422 17.3113 116.422 15.835V10.165L119.536 10.1618Z" fill="#1D2130"/>
<path d="M137.409 14.1739V20.5558H134.292V14.4438C134.292 13.4043 133.793 12.7396 132.796 12.7396C131.757 12.7396 131.175 13.4673 131.175 14.6937V20.5558H128.059V14.4438C128.059 13.4043 127.56 12.7396 126.562 12.7396C125.523 12.7396 124.942 13.4673 124.942 14.6937V20.5558H121.825V10.1608H124.942V11.1163C125.265 10.6924 125.689 10.3562 126.176 10.1385C126.662 9.92081 127.195 9.82848 127.726 9.86996C128.26 9.84386 128.791 9.95646 129.268 10.1968C129.744 10.4371 130.151 10.797 130.448 11.2413C130.793 10.7765 131.251 10.4069 131.777 10.167C132.304 9.92722 132.883 9.82501 133.461 9.86996C135.846 9.87101 137.409 11.5752 137.409 14.1739Z" fill="#1D2130"/>
<path d="M140.045 10.0978C141.323 10.0978 142.358 9.06168 142.358 7.78358C142.358 6.50549 141.323 5.46939 140.045 5.46939C138.768 5.46939 137.732 6.50549 137.732 7.78358C137.732 9.06168 138.768 10.0978 140.045 10.0978Z" fill="#1D2130"/>
</g>
</svg>
