<svg width="124" height="26" viewBox="0 0 124 26" fill="none" xmlns="http://www.w3.org/2000/svg">
<g opacity="0.6">
<path d="M40.0897 20.8367C39.4654 20.8703 38.848 20.6944 38.337 20.3375C38.1235 20.1807 37.9517 19.9747 37.8365 19.7373C37.7213 19.4999 37.6662 19.2383 37.6759 18.9751V9.33434C37.6708 9.29352 37.6751 9.25209 37.6886 9.21319C37.7021 9.1743 37.7244 9.13896 37.7537 9.10988C37.7831 9.0808 37.8187 9.05873 37.858 9.04537C37.8972 9.032 37.939 9.02768 37.9802 9.03274H39.7433C39.9427 9.03274 40.0372 9.13674 40.0372 9.33434V18.2263C40.0372 18.6215 40.2156 18.8191 40.5829 18.8191C40.7386 18.8255 40.8944 18.808 41.0447 18.7671C41.2546 18.7671 41.37 18.8295 41.3805 19.0167L41.5379 20.3167C41.5455 20.3546 41.5448 20.3937 41.5358 20.4313C41.5269 20.4689 41.5099 20.5042 41.486 20.5347C41.4621 20.5653 41.4319 20.5904 41.3974 20.6084C41.363 20.6264 41.325 20.6369 41.286 20.6391C40.8999 20.7655 40.4963 20.8322 40.0897 20.8367Z" fill="#1D2130"/>
<path d="M50.0072 19.724C49.1212 20.4494 48.0079 20.8462 46.8587 20.8462C45.7095 20.8462 44.5963 20.4494 43.7103 19.724C42.9317 18.945 42.4948 17.8929 42.4948 16.7964C42.4948 15.6999 42.9317 14.6478 43.7103 13.8688C44.598 13.1472 45.7106 12.7528 46.8587 12.7528C48.0069 12.7528 49.1195 13.1472 50.0072 13.8688C50.7679 14.655 51.1926 15.702 51.1926 16.7912C51.1926 17.8804 50.7679 18.9274 50.0072 19.7136V19.724ZM45.3685 18.3512C45.7796 18.7203 46.3145 18.9246 46.8692 18.9246C47.424 18.9246 47.9589 18.7203 48.37 18.3512C48.7421 17.9272 48.947 17.3843 48.947 16.8224C48.947 16.2605 48.7421 15.7176 48.37 15.2936C47.9589 14.9245 47.424 14.7201 46.8692 14.7201C46.3145 14.7201 45.7796 14.9245 45.3685 15.2936C44.9964 15.7176 44.7915 16.2605 44.7915 16.8224C44.7915 17.3843 44.9964 17.9272 45.3685 18.3512Z" fill="#1D2130"/>
<path d="M60.9007 13.0159C61.1001 13.0159 61.1945 13.1199 61.1945 13.3175V20.7743C61.2128 21.2776 61.1178 21.7786 60.9163 22.241C60.7148 22.7033 60.4119 23.1153 60.0296 23.4471C59.181 24.1642 58.0897 24.5358 56.9756 24.4871C55.9693 24.5222 54.9765 24.2499 54.1316 23.7071C53.7708 23.4723 53.4625 23.1665 53.226 22.8087C52.9895 22.4509 52.8298 22.0487 52.7568 21.6271C52.7568 21.4191 52.7568 21.3255 53.0401 21.3255H54.8032C54.8781 21.3281 54.9506 21.352 55.0121 21.3944C55.0735 21.4369 55.1213 21.496 55.1496 21.5647C55.2639 21.8806 55.4919 22.1435 55.7897 22.3031C56.1527 22.4887 56.5567 22.5817 56.9651 22.5735C57.2116 22.5869 57.4582 22.5515 57.6906 22.4694C57.9231 22.3872 58.1367 22.26 58.319 22.0951C58.4855 21.9227 58.615 21.7186 58.6998 21.4951C58.7846 21.2717 58.8228 21.0336 58.8122 20.7951V20.1399C58.1809 20.6001 57.4126 20.838 56.6293 20.8159C56.0811 20.8357 55.5345 20.7455 55.0223 20.5507C54.5101 20.3559 54.0429 20.0605 53.6488 19.6823C52.8922 18.9066 52.4692 17.87 52.4692 16.7911C52.4692 15.7123 52.8922 14.6756 53.6488 13.8999C54.0448 13.5251 54.5126 13.2326 55.0245 13.0397C55.5363 12.8468 56.082 12.7574 56.6293 12.7767C57.4353 12.7556 58.2243 13.0089 58.8647 13.4943V13.3279C58.8599 13.2881 58.8641 13.2477 58.877 13.2096C58.8899 13.1716 58.9112 13.1368 58.9393 13.108C58.9675 13.0791 59.0017 13.0568 59.0396 13.0427C59.0776 13.0285 59.1182 13.023 59.1585 13.0263L60.9007 13.0159ZM56.8287 18.9647C57.0991 18.973 57.368 18.9224 57.6164 18.8163C57.8649 18.7103 58.0868 18.5515 58.2665 18.3511C58.6154 17.9046 58.8047 17.3559 58.8047 16.7911C58.8047 16.2264 58.6154 15.6777 58.2665 15.2311C58.0874 15.0335 57.8669 14.877 57.6203 14.7728C57.3737 14.6686 57.1071 14.6192 56.8392 14.6279C56.5657 14.6194 56.2936 14.6699 56.0418 14.7758C55.7899 14.8818 55.5642 15.0407 55.3804 15.2415C54.9939 15.6687 54.7906 16.2283 54.8137 16.8015C54.7948 17.3692 54.9935 17.9229 55.3699 18.3511C55.5542 18.5515 55.7799 18.71 56.0317 18.8159C56.2834 18.9218 56.5553 18.9726 56.8287 18.9647Z" fill="#1D2130"/>
<path d="M70.2514 19.7239C69.3638 20.4456 68.2511 20.84 67.103 20.84C65.9549 20.84 64.8422 20.4456 63.9546 19.7239C63.1932 18.936 62.7682 17.8873 62.7682 16.7963C62.7682 15.7054 63.1932 14.6566 63.9546 13.8687C64.8431 13.149 65.9554 12.7558 67.103 12.7558C68.2506 12.7558 69.3629 13.149 70.2514 13.8687C71.0121 14.6549 71.4369 15.702 71.4369 16.7911C71.4369 17.8803 71.0121 18.9274 70.2514 19.7135V19.7239ZM65.6023 18.3511C65.8035 18.5408 66.0406 18.689 66.3 18.7872C66.5594 18.8854 66.8359 18.9316 67.1135 18.9231C67.3893 18.9302 67.6638 18.8833 67.9213 18.7852C68.1788 18.687 68.4143 18.5396 68.6142 18.3511C68.9803 17.9243 69.1812 17.3825 69.1812 16.8223C69.1812 16.2622 68.9803 15.7204 68.6142 15.2935C68.4143 15.1051 68.1788 14.9576 67.9213 14.8595C67.6638 14.7613 67.3893 14.7145 67.1135 14.7215C66.8359 14.7131 66.5594 14.7593 66.3 14.8575C66.0406 14.9557 65.8035 15.1039 65.6023 15.2935C65.2362 15.7204 65.0353 16.2622 65.0353 16.8223C65.0353 17.3825 65.2362 17.9243 65.6023 18.3511Z" fill="#1D2130"/>
<path d="M75.226 11.248C74.9485 11.4886 74.5924 11.6212 74.2237 11.6212C73.855 11.6212 73.4989 11.4886 73.2215 11.248C73.0957 11.1303 72.9955 10.9885 72.927 10.8311C72.8585 10.6737 72.8232 10.5042 72.8232 10.3328C72.8232 10.1614 72.8585 9.99181 72.927 9.83444C72.9955 9.67706 73.0957 9.53521 73.2215 9.41758C73.5018 9.18297 73.8568 9.05426 74.2237 9.05426C74.5906 9.05426 74.9457 9.18297 75.226 9.41758C75.3517 9.53521 75.4519 9.67706 75.5204 9.83444C75.5889 9.99181 75.6243 10.1614 75.6243 10.3328C75.6243 10.5042 75.5889 10.6737 75.5204 10.8311C75.4519 10.9885 75.3517 11.1303 75.226 11.248ZM75.4463 20.8368C74.8225 20.8671 74.2061 20.6915 73.6937 20.3376C73.4835 20.1784 73.3147 19.9717 73.2015 19.7347C73.0883 19.4977 73.034 19.2372 73.0431 18.9752V13.3176C73.038 13.2768 73.0423 13.2353 73.0558 13.1964C73.0693 13.1575 73.0916 13.1222 73.1209 13.0931C73.1503 13.064 73.1859 13.042 73.2252 13.0286C73.2644 13.0152 73.3062 13.0109 73.3474 13.016H75.1105C75.3099 13.016 75.4044 13.12 75.4044 13.3176V18.2264C75.4044 18.6216 75.5828 18.8192 75.9396 18.8192C76.0987 18.8248 76.2579 18.8073 76.4119 18.7672C76.6218 18.7672 76.7372 18.8296 76.7477 19.0168L76.9051 20.3168C76.9127 20.3547 76.912 20.3937 76.903 20.4314C76.894 20.469 76.8771 20.5042 76.8532 20.5348C76.8293 20.5653 76.7991 20.5904 76.7646 20.6085C76.7301 20.6265 76.6922 20.6369 76.6532 20.6392C76.2636 20.7663 75.8565 20.833 75.4463 20.8368Z" fill="#1D2130"/>
<path d="M83.3909 12.7664C83.9417 12.7448 84.4911 12.8331 85.0067 13.0261C85.5223 13.219 85.9936 13.5127 86.3924 13.8896C87.1346 14.6789 87.5472 15.7176 87.5472 16.7964C87.5472 17.8752 87.1346 18.9139 86.3924 19.7032C85.9955 20.0835 85.5248 20.38 85.0089 20.5748C84.493 20.7697 83.9426 20.8588 83.3909 20.8368C82.605 20.8541 81.8349 20.6168 81.1975 20.1608V23.9152C81.1975 24.1128 81.0926 24.2064 80.8932 24.2064H79.1301C79.0899 24.2139 79.0484 24.2115 79.0093 24.1995C78.9702 24.1875 78.9347 24.1662 78.9057 24.1375C78.8768 24.1089 78.8553 24.0736 78.8432 24.0349C78.8311 23.9961 78.8287 23.9551 78.8362 23.9152V15.3872C78.8486 15.3038 78.8411 15.2187 78.8143 15.1386C78.7876 15.0586 78.7423 14.9859 78.6822 14.9263C78.622 14.8666 78.5486 14.8218 78.4679 14.7953C78.3871 14.7688 78.3012 14.7614 78.217 14.7736H77.8707C77.6398 14.7736 77.5244 14.6904 77.5244 14.524V13.2968C77.519 13.2209 77.5399 13.1454 77.5839 13.0829C77.6278 13.0205 77.692 12.9748 77.7658 12.9536C78.1288 12.8228 78.513 12.7594 78.8992 12.7664C79.2843 12.7326 79.6709 12.8136 80.0093 12.9988C80.3477 13.1841 80.6226 13.4653 80.7987 13.8064C81.1368 13.4675 81.541 13.2005 81.9867 13.0217C82.4324 12.8429 82.9102 12.756 83.3909 12.7664ZM81.7538 18.3512C81.9409 18.545 82.1657 18.6992 82.4146 18.8046C82.6635 18.91 82.9314 18.9643 83.202 18.9643C83.4727 18.9643 83.7406 18.91 83.9895 18.8046C84.2384 18.6992 84.4632 18.545 84.6503 18.3512C85.0445 17.9155 85.2516 17.3447 85.2275 16.76C85.255 16.1748 85.0474 15.6027 84.6503 15.1688C84.4632 14.975 84.2384 14.8208 83.9895 14.7154C83.7406 14.61 83.4727 14.5557 83.202 14.5557C82.9314 14.5557 82.6635 14.61 82.4146 14.7154C82.1657 14.8208 81.9409 14.975 81.7538 15.1688C81.3719 15.6104 81.1731 16.179 81.1975 16.76C81.1763 17.3406 81.3746 17.9081 81.7538 18.3512Z" fill="#1D2130"/>
<path d="M92.5003 20.8367C91.5581 20.8751 90.6239 20.6518 89.8031 20.1919C89.4738 19.9953 89.1933 19.7278 88.9826 19.4091C88.7718 19.0905 88.6362 18.7288 88.5857 18.3511C88.5857 18.1431 88.6592 18.0391 88.8901 18.0391H90.4328C90.5062 18.042 90.5774 18.0648 90.6385 18.1052C90.6996 18.1456 90.7483 18.2019 90.7791 18.2679C90.9995 18.8295 91.5767 19.1103 92.5003 19.1103C92.8224 19.1249 93.1432 19.0606 93.4343 18.9231C93.5348 18.8782 93.621 18.807 93.6839 18.7173C93.7467 18.6275 93.7838 18.5225 93.7911 18.4135C93.7911 18.1431 93.6232 17.9559 93.2874 17.8311C92.889 17.6997 92.4772 17.6125 92.0595 17.5711C91.5646 17.5156 91.0739 17.4288 90.5902 17.3111C90.1199 17.2056 89.6922 16.9629 89.3623 16.6143C89.1681 16.3774 89.0251 16.1034 88.9422 15.8093C88.8594 15.5153 88.8385 15.2075 88.8808 14.9051C88.9232 14.6027 89.0278 14.3122 89.1883 14.0516C89.3487 13.791 89.5616 13.5659 89.8136 13.3903C90.57 12.9128 91.4576 12.6802 92.3533 12.7247C93.2206 12.6957 94.0787 12.9083 94.8301 13.3383C95.1329 13.5083 95.3937 13.7431 95.5934 14.0255C95.7931 14.308 95.9267 14.631 95.9845 14.9711C95.9845 15.1791 95.8901 15.2831 95.7011 15.2831H94.1479C94.0825 15.287 94.0175 15.2712 93.9613 15.2378C93.9051 15.2043 93.8604 15.1549 93.8331 15.0959C93.7293 14.8496 93.5339 14.6523 93.2874 14.5447C93.0092 14.4005 92.6986 14.3289 92.3848 14.3367C92.0772 14.3201 91.7703 14.381 91.4928 14.5135C91.395 14.5509 91.3107 14.6165 91.2509 14.7017C91.191 14.787 91.1583 14.8881 91.1569 14.9919C91.1636 15.1341 91.2162 15.2705 91.3068 15.3809C91.3975 15.4914 91.5215 15.5701 91.6607 15.6055C92.0637 15.7561 92.4827 15.8607 92.9095 15.9175C93.4004 15.9815 93.8873 16.0718 94.3683 16.1879C94.8387 16.2934 95.2663 16.5361 95.5962 16.8847C95.7726 17.0768 95.9089 17.3016 95.9972 17.5461C96.0855 17.7907 96.124 18.0501 96.1104 18.3095C96.1195 18.669 96.0343 19.0247 95.8633 19.3419C95.6922 19.659 95.4411 19.9268 95.1344 20.1191C94.3503 20.618 93.4315 20.8683 92.5003 20.8367Z" fill="#1D2130"/>
<path d="M107.203 20.3167C107.209 20.3537 107.208 20.3914 107.199 20.4277C107.19 20.464 107.174 20.4982 107.151 20.5283C107.129 20.5583 107.1 20.5836 107.068 20.6026C107.035 20.6216 106.999 20.6341 106.962 20.6391C106.579 20.7631 106.179 20.8297 105.776 20.8367C105.377 20.8777 104.975 20.8159 104.607 20.6574C104.239 20.4989 103.919 20.249 103.677 19.9319C102.936 20.5635 101.977 20.8876 101.001 20.8367C100.548 20.8574 100.095 20.7839 99.6721 20.6209C99.2492 20.458 98.8654 20.2091 98.5453 19.8903C98.2274 19.5564 97.9808 19.1622 97.8203 18.7315C97.6598 18.3009 97.5887 17.8425 97.6113 17.3839V13.3175C97.6113 13.1199 97.7057 13.0159 97.9051 13.0159H99.6682C99.8676 13.0159 99.9621 13.1199 99.9621 13.3175V17.0719C99.9429 17.5397 100.104 17.9971 100.413 18.3511C100.568 18.5133 100.755 18.6409 100.963 18.7252C101.172 18.8095 101.396 18.8486 101.62 18.8399C101.85 18.8499 102.08 18.8146 102.296 18.7361C102.512 18.6575 102.711 18.5373 102.88 18.3823C103.04 18.219 103.164 18.0249 103.245 17.8121C103.326 17.5992 103.363 17.3721 103.352 17.1447V13.3175C103.352 13.1199 103.446 13.0159 103.646 13.0159H105.43C105.629 13.0159 105.724 13.1199 105.724 13.3175V18.2159C105.724 18.6215 105.902 18.8191 106.248 18.8191C106.411 18.8254 106.574 18.8079 106.731 18.7671C106.771 18.7561 106.813 18.7541 106.853 18.7614C106.894 18.7686 106.932 18.7848 106.965 18.8088C106.999 18.8328 107.026 18.864 107.045 18.9C107.065 18.936 107.076 18.9759 107.077 19.0167L107.203 20.3167Z" fill="#1D2130"/>
<path d="M123.879 20.3168C123.889 20.354 123.89 20.3929 123.882 20.4305C123.875 20.4681 123.859 20.5036 123.836 20.5344C123.812 20.5653 123.783 20.5906 123.749 20.6087C123.715 20.6269 123.677 20.6372 123.638 20.6392C123.248 20.7649 122.841 20.8315 122.431 20.8368C121.807 20.8687 121.19 20.693 120.679 20.3376C120.457 20.1853 120.277 19.9813 120.155 19.7437C120.032 19.506 119.97 19.2421 119.975 18.9752V16.5312C119.998 16.0648 119.84 15.6076 119.535 15.252C119.387 15.0894 119.206 14.9613 119.002 14.8768C118.799 14.7922 118.579 14.7534 118.359 14.7632C118.161 14.7558 117.963 14.7931 117.781 14.8723C117.6 14.9516 117.438 15.0708 117.31 15.2208C117.033 15.5693 116.891 16.0048 116.911 16.448V20.2856C116.911 20.4832 116.817 20.5872 116.617 20.5872H114.843C114.802 20.5922 114.76 20.5879 114.721 20.5746C114.682 20.5612 114.646 20.5391 114.617 20.51C114.588 20.481 114.565 20.4456 114.552 20.4067C114.538 20.3678 114.534 20.3264 114.539 20.2856V16.5312C114.562 16.0699 114.417 15.6159 114.13 15.252C114.002 15.0991 113.842 14.9761 113.66 14.8916C113.479 14.8071 113.281 14.7633 113.08 14.7632C112.866 14.7546 112.653 14.791 112.454 14.8698C112.255 14.9487 112.075 15.0683 111.926 15.2208C111.626 15.5582 111.471 15.9988 111.496 16.448V20.2856C111.501 20.3264 111.496 20.3678 111.483 20.4067C111.469 20.4456 111.447 20.481 111.418 20.51C111.388 20.5391 111.353 20.5612 111.314 20.5746C111.274 20.5879 111.233 20.5922 111.191 20.5872H109.481C109.281 20.5872 109.187 20.4832 109.187 20.2856V15.3872C109.199 15.3038 109.192 15.2187 109.165 15.1386C109.138 15.0586 109.093 14.9859 109.033 14.9262C108.973 14.8666 108.899 14.8218 108.818 14.7953C108.738 14.7688 108.652 14.7613 108.568 14.7736H108.221C107.99 14.7736 107.875 14.6904 107.875 14.524V13.2968C107.87 13.2208 107.891 13.1454 107.934 13.0829C107.978 13.0204 108.043 12.9748 108.116 12.9536C108.479 12.8228 108.864 12.7594 109.25 12.7664C109.621 12.7351 109.993 12.8083 110.323 12.9776C110.654 13.1469 110.929 13.4054 111.118 13.7232C111.472 13.3906 111.891 13.134 112.35 12.9694C112.809 12.8048 113.297 12.7357 113.784 12.7664C114.256 12.7435 114.728 12.8314 115.16 13.0229C115.592 13.2145 115.973 13.5043 116.271 13.8688C116.618 13.4947 117.045 13.2018 117.52 13.0111C117.996 12.8205 118.508 12.7369 119.02 12.7664C119.478 12.7451 119.936 12.8183 120.364 12.9812C120.792 13.1441 121.182 13.3932 121.508 13.7128C121.827 14.0461 122.074 14.4401 122.234 14.871C122.395 15.3018 122.465 15.7605 122.442 16.2192V18.2264C122.442 18.6216 122.62 18.8192 122.956 18.8192C123.119 18.8267 123.281 18.8092 123.439 18.7672C123.656 18.7672 123.771 18.8504 123.785 19.0168L123.879 20.3168Z" fill="#1D2130"/>
<path d="M0.818467 11.664C1.59273 8.58006 3.38592 5.84147 5.9125 3.8843C8.43908 1.92712 11.5538 0.863892 14.7607 0.863892C17.9676 0.863892 21.0823 1.92712 23.6089 3.8843C26.1355 5.84147 27.9287 8.58006 28.7029 11.664H27.4436C25.3191 11.633 23.2382 12.2622 21.4931 13.4632C21.3923 13.5355 21.2872 13.6015 21.1782 13.6608H21.0313C20.9223 13.6015 20.8172 13.5355 20.7164 13.4632C18.9558 12.29 16.8823 11.6634 14.7607 11.6634C12.6391 11.6634 10.5655 12.29 8.80494 13.4632C8.70423 13.5355 8.59908 13.6015 8.4901 13.6608H8.34318C8.2342 13.6015 8.12905 13.5355 8.02834 13.4632C6.28321 12.2622 4.2023 11.633 2.07783 11.664H0.818467ZM25.1767 18.1848C25.8232 17.6859 26.6244 17.4249 27.4436 17.4464H29.1332V14.108H27.4436C26.0008 14.0907 24.591 14.5357 23.4241 15.3768C22.7674 15.8565 21.973 16.1154 21.1572 16.1154C20.3414 16.1154 19.547 15.8565 18.8904 15.3768C17.6939 14.5514 16.271 14.109 14.8132 14.109C13.3553 14.109 11.9325 14.5514 10.736 15.3768C10.0793 15.8565 9.28493 16.1154 8.46911 16.1154C7.6533 16.1154 6.85891 15.8565 6.20226 15.3768C5.02097 14.525 3.59096 14.0794 2.13031 14.108H0.388184V17.4464H2.07783C2.89695 17.4249 3.6982 17.6859 4.34469 18.1848C5.539 19.0107 6.96028 19.4536 8.41664 19.4536C9.873 19.4536 11.2943 19.0107 12.4886 18.1848C13.1359 17.6874 13.9366 17.4266 14.7554 17.4464C15.5748 17.4231 16.3767 17.6843 17.0223 18.1848C18.2188 19.0102 19.6417 19.4526 21.0995 19.4526C22.5573 19.4526 23.9802 19.0102 25.1767 18.1848ZM25.1767 24.1544C25.8232 23.6555 26.6244 23.3945 27.4436 23.416H29.1332V20.0776H27.4436C26.0008 20.0603 24.591 20.5053 23.4241 21.3464C22.7674 21.8262 21.973 22.085 21.1572 22.085C20.3414 22.085 19.547 21.8262 18.8904 21.3464C17.6939 20.521 16.271 20.0786 14.8132 20.0786C13.3553 20.0786 11.9325 20.521 10.736 21.3464C10.0793 21.8262 9.28493 22.085 8.46911 22.085C7.6533 22.085 6.85891 21.8262 6.20226 21.3464C5.02097 20.4946 3.59096 20.049 2.13031 20.0776H0.388184V23.416H2.07783C2.89695 23.3945 3.6982 23.6555 4.34469 24.1544C5.539 24.9803 6.96028 25.4232 8.41664 25.4232C9.873 25.4232 11.2943 24.9803 12.4886 24.1544C13.1359 23.657 13.9366 23.3962 14.7554 23.416C15.5748 23.3927 16.3767 23.6539 17.0223 24.1544C18.2188 24.9798 19.6417 25.4222 21.0995 25.4222C22.5573 25.4222 23.9802 24.9798 25.1767 24.1544Z" fill="#1D2130"/>
</g>
</svg>
