<svg width="138" height="32" viewBox="0 0 138 32" fill="none" xmlns="http://www.w3.org/2000/svg">
<g opacity="0.6">
<path d="M33.6482 7.92847H36.8135V23.2455H33.6482V7.92847Z" fill="#1D2130"/>
<path d="M38.5861 17.9985C38.5861 16.8964 38.9118 15.8193 39.5219 14.9034C40.132 13.9876 40.999 13.2743 42.013 12.8541C43.0271 12.4338 44.1425 12.3255 45.2178 12.5428C46.2932 12.7601 47.2802 13.2933 48.0536 14.0748C48.827 14.8562 49.3521 15.8508 49.5622 16.9324C49.7724 18.014 49.6581 19.1339 49.234 20.1502C48.8099 21.1665 48.095 22.0334 47.1799 22.6411C46.2648 23.2487 45.1907 23.5698 44.0938 23.5635C43.3663 23.5692 42.6449 23.4289 41.9721 23.1508C41.2992 22.8728 40.6884 22.4626 40.1754 21.9443C39.6624 21.4259 39.2576 20.8099 38.9847 20.1324C38.7118 19.4548 38.5763 18.7293 38.5861 17.9985ZM46.5206 17.9985C46.5081 17.5234 46.3565 17.0625 46.0847 16.6735C45.813 16.2845 45.433 15.9847 44.9925 15.8115C44.552 15.6383 44.0704 15.5994 43.608 15.6997C43.1456 15.8 42.7229 16.0351 42.3927 16.3755C42.0626 16.7158 41.8397 17.1465 41.7519 17.6135C41.6641 18.0805 41.7153 18.5631 41.8991 19.001C42.0829 19.4389 42.3911 19.8127 42.7852 20.0756C43.1793 20.3384 43.6419 20.4787 44.1149 20.4789C44.437 20.4852 44.7569 20.4247 45.0547 20.3011C45.3524 20.1776 45.6216 19.9937 45.8454 19.7609C46.0692 19.5281 46.2428 19.2514 46.3553 18.9482C46.4679 18.6449 46.517 18.3216 46.4995 17.9985H46.5206Z" fill="#1D2130"/>
<path d="M62.1257 12.7515V22.7261C62.1257 26.2453 59.3825 27.7399 56.6075 27.7399C55.6287 27.8206 54.6469 27.6252 53.7727 27.1757C52.8984 26.7263 52.1664 26.0406 51.659 25.1959L54.3285 23.6483C54.5448 24.0864 54.8889 24.4479 55.3149 24.6846C55.7409 24.9214 56.2286 25.022 56.713 24.9733C57.0216 25.0115 57.3348 24.9807 57.6301 24.8831C57.9255 24.7855 58.1958 24.6236 58.4216 24.4089C58.6474 24.1942 58.8232 23.932 58.9364 23.6411C59.0496 23.3502 59.0975 23.0377 59.0765 22.7261V21.7615C58.7081 22.2101 58.2407 22.5664 57.7114 22.8019C57.1821 23.0374 56.6054 23.1457 56.0272 23.1183C54.628 23.1183 53.2862 22.5599 52.2968 21.5659C51.3074 20.572 50.7516 19.2239 50.7516 17.8183C50.7516 16.4126 51.3074 15.0645 52.2968 14.0706C53.2862 13.0767 54.628 12.5183 56.0272 12.5183C56.6054 12.4908 57.1821 12.5991 57.7114 12.8346C58.2407 13.0702 58.7081 13.4264 59.0765 13.8751V12.8151L62.1257 12.7515ZM59.0765 17.7865C59.0975 17.2793 58.9671 16.7775 58.7019 16.3454C58.4368 15.9133 58.0491 15.5708 57.5886 15.3619C57.1281 15.153 56.616 15.0873 56.118 15.1731C55.6201 15.259 55.1591 15.4925 54.7943 15.8437C54.4295 16.1949 54.1777 16.6477 54.0711 17.1439C53.9645 17.64 54.0081 18.1569 54.1963 18.6279C54.3845 19.099 54.7086 19.5027 55.127 19.7872C55.5454 20.0718 56.039 20.224 56.5442 20.2245C56.8739 20.2483 57.2049 20.2024 57.5158 20.0898C57.8267 19.9772 58.1107 19.8002 58.3493 19.5705C58.588 19.3407 58.776 19.0632 58.9012 18.7559C59.0265 18.4486 59.0862 18.1184 59.0765 17.7865Z" fill="#1D2130"/>
<path d="M63.9088 17.9985C63.9089 16.8974 64.234 15.821 64.8431 14.9056C65.4523 13.9902 66.318 13.2769 67.3308 12.8561C68.3436 12.4352 69.4579 12.3256 70.5328 12.5412C71.6076 12.7568 72.5946 13.2878 73.3688 14.0672C74.1431 14.8465 74.6698 15.8391 74.8824 16.9193C75.0949 17.9995 74.9837 19.1188 74.5629 20.1354C74.142 21.1521 73.4303 22.0205 72.518 22.6307C71.6057 23.241 70.5337 23.5656 69.4376 23.5635C68.7087 23.5706 67.9857 23.4314 67.3111 23.1541C66.6364 22.8768 66.0236 22.467 65.5087 21.9487C64.9937 21.4304 64.587 20.814 64.3123 20.1356C64.0375 19.4573 63.9004 18.7307 63.9088 17.9985ZM71.8433 17.9985C71.8308 17.5229 71.679 17.0616 71.4067 16.6724C71.1344 16.2832 70.7539 15.9834 70.3128 15.8105C69.8716 15.6376 69.3895 15.5994 68.9268 15.7006C68.4642 15.8017 68.0415 16.0378 67.7118 16.3793C67.3821 16.7207 67.16 17.1523 67.0734 17.62C66.9868 18.0877 67.0395 18.5706 67.2249 19.0084C67.4103 19.4461 67.7202 19.8191 68.1156 20.0807C68.5111 20.3423 68.9747 20.4808 69.4482 20.4789C69.7703 20.4852 70.0902 20.4247 70.388 20.3011C70.6857 20.1776 70.9549 19.9937 71.1787 19.7609C71.4025 19.5281 71.5761 19.2514 71.6886 18.9482C71.8012 18.6449 71.8502 18.3216 71.8328 17.9985H71.8433Z" fill="#1D2130"/>
<path d="M76.4331 9.94241C76.4331 9.56924 76.5433 9.20444 76.7496 8.89416C76.956 8.58388 77.2493 8.34204 77.5925 8.19923C77.9357 8.05643 78.3133 8.01906 78.6776 8.09187C79.0419 8.16467 79.3766 8.34437 79.6392 8.60824C79.9019 8.87212 80.0807 9.20831 80.1532 9.57432C80.2257 9.94032 80.1885 10.3197 80.0463 10.6645C79.9042 11.0092 79.6635 11.3039 79.3546 11.5112C79.0458 11.7186 78.6827 11.8292 78.3112 11.8292C77.8148 11.8237 77.3403 11.6231 76.9893 11.2705C76.6382 10.9178 76.4386 10.4411 76.4331 9.94241ZM76.7391 12.7514H79.9044V23.2454H76.7391V12.7514Z" fill="#1D2130"/>
<path d="M93.452 17.9985C93.4875 18.6964 93.3853 19.3945 93.1512 20.0525C92.917 20.7106 92.5557 21.3156 92.088 21.8328C91.6202 22.3501 91.0552 22.7692 90.4256 23.0663C89.7959 23.3633 89.1141 23.5323 88.4192 23.5635C87.8295 23.6029 87.2385 23.508 86.6904 23.2859C86.1423 23.0639 85.6513 22.7203 85.2538 22.2809V27.4643H82.0885V12.7515H85.2538V13.7373C85.6518 13.2992 86.1432 12.9572 86.6914 12.7369C87.2396 12.5166 87.8302 12.4238 88.4192 12.4653C89.1113 12.4966 89.7905 12.6646 90.4179 12.9596C91.0454 13.2546 91.6089 13.6709 92.0763 14.1847C92.5436 14.6985 92.9057 15.2998 93.1417 15.9541C93.3778 16.6085 93.4832 17.3032 93.452 17.9985ZM90.2867 17.9985C90.2742 17.5062 90.1174 17.0285 89.8359 16.6254C89.5543 16.2222 89.1606 15.9115 88.704 15.7322C88.2475 15.5529 87.7484 15.513 87.2693 15.6174C86.7903 15.7219 86.3526 15.9661 86.011 16.3194C85.6695 16.6727 85.4394 17.1194 85.3496 17.6035C85.2597 18.0876 85.3141 18.5877 85.5059 19.0409C85.6977 19.4941 86.0183 19.8804 86.4277 20.1512C86.8371 20.4221 87.317 20.5656 87.8072 20.5637C88.143 20.578 88.4779 20.5209 88.7902 20.396C89.1024 20.2711 89.3848 20.0814 89.619 19.8392C89.8531 19.5969 90.0336 19.3077 90.1487 18.9905C90.2638 18.6733 90.3108 18.3352 90.2867 17.9985Z" fill="#1D2130"/>
<path d="M103.085 20.0972C103.085 22.514 100.975 23.5422 98.7382 23.5422C97.8258 23.6247 96.9099 23.4305 96.1086 22.9845C95.3073 22.5386 94.6576 21.8614 94.2434 21.0406L96.9656 19.493C97.0734 19.8713 97.3073 20.2008 97.628 20.4266C97.9487 20.6523 98.3369 20.7606 98.7276 20.7332C99.4767 20.7332 99.8566 20.5 99.8566 20.076C99.8566 18.9206 94.7182 19.5354 94.7182 15.8996C94.7182 13.61 96.6385 12.4652 98.812 12.4652C99.6382 12.4281 100.459 12.6164 101.187 13.0102C101.915 13.404 102.524 13.9886 102.948 14.7018L100.226 16.1434C100.106 15.87 99.9091 15.6374 99.6601 15.4737C99.411 15.3101 99.1201 15.2224 98.8226 15.2212C98.2739 15.2212 97.9468 15.4332 97.9468 15.8042C97.9468 17.0126 103.085 16.2176 103.085 20.0972Z" fill="#1D2130"/>
<path d="M114.554 12.7515V23.2455H111.389V22.2597C111.029 22.6961 110.573 23.0414 110.056 23.2679C109.539 23.4944 108.976 23.5956 108.413 23.5635C106.303 23.5635 104.499 22.0477 104.499 19.2175V12.7515H107.664V18.7405C107.639 18.9909 107.669 19.2437 107.751 19.4815C107.833 19.7193 107.965 19.9364 108.139 20.1178C108.312 20.2993 108.523 20.4407 108.756 20.5323C108.989 20.6239 109.24 20.6636 109.49 20.6485C110.629 20.6485 111.431 19.9701 111.431 18.5285V12.7515H114.554Z" fill="#1D2130"/>
<path d="M132.491 16.8006V23.2454H129.326V17.0762C129.326 16.0162 128.83 15.359 127.828 15.359C126.825 15.359 126.192 16.0904 126.192 17.3306V23.2454H123.027V17.0762C123.027 16.0162 122.531 15.359 121.529 15.359C120.526 15.359 119.893 16.0904 119.893 17.3306V23.2454H116.728V12.7514H119.893V13.716C120.221 13.2899 120.649 12.9524 121.139 12.734C121.629 12.5157 122.165 12.4233 122.7 12.4652C123.235 12.4372 123.768 12.5495 124.248 12.7911C124.727 13.0326 125.135 13.3952 125.432 13.8432C125.78 13.3752 126.24 13.0033 126.77 12.7623C127.299 12.5213 127.881 12.4191 128.461 12.4652C130.93 12.4652 132.491 14.1824 132.491 16.8006Z" fill="#1D2130"/>
<path d="M14.7933 5.17248V0.66748H0.654785V31.6195H14.7933V27.1145C11.897 27.1145 9.11938 25.9586 7.0714 23.9011C5.02343 21.8437 3.87288 19.0532 3.87288 16.1435C3.87288 13.2338 5.02343 10.4433 7.0714 8.38581C9.11938 6.32835 11.897 5.17248 14.7933 5.17248Z" fill="#1D2130"/>
<path d="M14.7933 5.17248V27.1145C17.6896 27.1145 20.4672 25.9586 22.5151 23.9011C24.5631 21.8437 25.7137 19.0532 25.7137 16.1435C25.7137 13.2338 24.5631 10.4433 22.5151 8.38581C20.4672 6.32835 17.6896 5.17248 14.7933 5.17248Z" fill="#1D2130"/>
<path d="M135.15 12.6879C136.432 12.6879 137.471 11.6438 137.471 10.3559C137.471 9.06792 136.432 8.02385 135.15 8.02385C133.868 8.02385 132.829 9.06792 132.829 10.3559C132.829 11.6438 133.868 12.6879 135.15 12.6879Z" fill="#1D2130"/>
</g>
</svg>
