<svg width="134" height="32" viewBox="0 0 134 32" fill="none" xmlns="http://www.w3.org/2000/svg">
<g opacity="0.6">
<path d="M38.1577 10.1167H41.5447V23.7667H38.1577V10.1167ZM42.8952 18.6322C42.8952 15.2512 45.0054 13.2247 48.1708 13.2247C51.3361 13.2247 53.4463 15.2512 53.4463 18.6322C53.4463 22.0132 51.41 24.0607 48.1708 24.0607C44.9316 24.0607 42.8952 22.0867 42.8952 18.6322ZM50.0911 18.6322C50.0911 16.7737 49.363 15.6817 48.2024 15.6817C47.0418 15.6817 46.3243 16.7317 46.3243 18.6322C46.3243 20.5327 47.0418 21.5722 48.2024 21.5722C49.363 21.5722 50.1122 20.5327 50.1122 18.6427L50.0911 18.6322ZM54.7969 24.4702H58.0677C58.2166 24.8206 58.4767 25.1129 58.8082 25.3025C59.1397 25.4921 59.5244 25.5686 59.9036 25.5202C61.2014 25.5202 61.8767 24.8272 61.8767 23.7982V21.9082H61.8873C61.6078 22.4967 61.1558 22.9872 60.5908 23.3152C60.0258 23.6432 59.3743 23.7932 58.7219 23.7457C56.2424 23.7457 54.5964 21.8662 54.5964 18.6322C54.5964 15.3982 56.1685 13.3822 58.8169 13.3822C59.4859 13.3466 60.1496 13.5183 60.7165 13.8737C61.2834 14.2291 61.7256 14.7507 61.9822 15.3667H61.8873V13.4662H65.2425V23.6932C65.2425 26.1607 63.0479 27.7042 59.8192 27.7042C56.886 27.6937 55.0079 26.3602 54.818 24.4807L54.7969 24.4702ZM61.8873 18.6322C61.8873 16.9837 61.1276 15.9442 59.9247 15.9442C58.7219 15.9442 57.9833 16.9942 57.9833 18.6322C57.9833 20.2702 58.7114 21.2362 59.9247 21.2362C61.1381 21.2362 61.8873 20.3437 61.8873 18.6322ZM66.5825 18.6322C66.5825 15.2512 68.6927 13.2247 71.8581 13.2247C75.0234 13.2247 77.1336 15.2512 77.1336 18.6322C77.1336 22.0132 75.0867 24.0607 71.8581 24.0607C68.6294 24.0607 66.6036 22.0867 66.6036 18.6322H66.5825ZM73.7784 18.6322C73.7784 16.7737 73.0398 15.6817 71.8897 15.6817C70.7397 15.6817 70.0116 16.7317 70.0116 18.6322C70.0116 20.5327 70.7291 21.5722 71.8897 21.5722C73.0504 21.5722 73.7995 20.5327 73.7995 18.6427L73.7784 18.6322ZM78.5053 10.9777C78.4906 10.6343 78.5794 10.2945 78.7603 10.0018C78.9413 9.70912 79.2061 9.47701 79.5207 9.33533C79.8353 9.19366 80.1853 9.1489 80.5257 9.20681C80.8661 9.26472 81.1813 9.42265 81.4307 9.66028C81.6802 9.89792 81.8524 10.2044 81.9254 10.5403C81.9984 10.8762 81.9687 11.2261 81.8402 11.545C81.7117 11.864 81.4902 12.1374 81.2043 12.3301C80.9183 12.5227 80.581 12.6259 80.2357 12.6262C80.015 12.6318 79.7954 12.5937 79.5896 12.5141C79.3839 12.4345 79.196 12.3151 79.037 12.1627C78.878 12.0103 78.751 11.828 78.6633 11.6264C78.5757 11.4248 78.5291 11.2078 78.5264 10.9882L78.5053 10.9777ZM78.5053 13.4557H81.9344V23.8087H78.5581L78.5053 13.4557ZM94.2687 18.6322C94.2687 22.0027 92.7493 23.9557 90.1643 23.9557C89.5025 23.9963 88.8441 23.8338 88.2781 23.4902C87.712 23.1466 87.2655 22.6384 86.999 22.0342H86.9357V27.1372H83.5487V13.4872H86.9146V15.3352H86.9779C87.2353 14.7191 87.6774 14.197 88.2438 13.84C88.8102 13.483 89.4735 13.3085 90.1432 13.3402C92.8021 13.3192 94.332 15.2617 94.332 18.6427L94.2687 18.6322ZM90.8185 18.6322C90.8185 16.9942 90.0482 15.9337 88.856 15.9337C87.6637 15.9337 86.9146 16.9837 86.904 18.6322C86.8935 20.2807 87.6637 21.3202 88.856 21.3202C90.0482 21.3202 90.8818 20.3437 90.8818 18.6427L90.8185 18.6322ZM100.051 13.2142C102.889 13.2142 104.651 14.5477 104.672 16.6897H101.581C101.581 15.9442 100.958 15.4822 100.03 15.4822C99.1011 15.4822 98.658 15.8392 98.658 16.3747C98.658 16.9102 99.0484 17.0782 99.8292 17.2357L102.003 17.6767C104.113 18.1177 104.957 18.9577 104.957 20.5222C104.957 22.6222 103.005 24.0502 100.103 24.0502C97.2019 24.0502 95.3133 22.6642 95.1761 20.5537H98.4575C98.5525 21.3202 99.1644 21.7717 100.156 21.7717C101.148 21.7717 101.612 21.4567 101.612 20.9002C101.612 20.3437 101.296 20.2492 100.483 20.0812L98.5208 19.6717C96.4844 19.2412 95.4188 18.1807 95.4188 16.5952C95.4821 14.5372 97.2547 13.2247 100.114 13.2247L100.051 13.2142ZM116.299 23.7982H113.018V21.8557H112.955C112.771 22.5036 112.371 23.0699 111.821 23.4612C111.27 23.8525 110.602 24.0454 109.927 24.0082C109.417 24.0247 108.909 23.9337 108.437 23.7412C107.965 23.5487 107.539 23.259 107.187 22.8911C106.835 22.5233 106.566 22.0856 106.396 21.6067C106.226 21.1279 106.16 20.6187 106.202 20.1127V13.4662H109.589V19.3882C109.589 20.6062 110.233 21.2677 111.288 21.2677C111.535 21.2658 111.779 21.2111 112.004 21.1073C112.228 21.0035 112.428 20.8529 112.589 20.6658C112.75 20.4787 112.869 20.2594 112.937 20.0227C113.006 19.786 113.023 19.5374 112.986 19.2937V13.4662H116.363L116.299 23.7982ZM117.935 13.4557H121.227V15.4507H121.301C121.483 14.8116 121.872 14.2505 122.409 13.8554C122.945 13.4602 123.598 13.2531 124.266 13.2667C124.936 13.2087 125.603 13.4015 126.138 13.8073C126.672 14.2132 127.036 14.8029 127.157 15.4612H127.304C127.515 14.7994 127.94 14.2255 128.512 13.8286C129.085 13.4318 129.773 13.2342 130.47 13.2667C130.933 13.2491 131.395 13.3291 131.824 13.5014C132.254 13.6737 132.643 13.9344 132.965 14.2665C133.286 14.5985 133.534 14.9944 133.691 15.4283C133.849 15.8622 133.912 16.3242 133.878 16.7842V23.8087H130.47V17.6452C130.47 16.5952 129.974 16.0072 129.014 16.0072C128.801 16.0037 128.589 16.0461 128.395 16.1314C128.2 16.2168 128.025 16.3431 127.884 16.5017C127.743 16.6602 127.638 16.8473 127.576 17.0502C127.514 17.253 127.497 17.4667 127.526 17.6767V23.8087H124.297V17.6137C124.297 16.5637 123.78 16.0072 122.852 16.0072C122.637 16.0055 122.424 16.0496 122.227 16.1366C122.03 16.2236 121.855 16.3514 121.712 16.5115C121.569 16.6716 121.462 16.8603 121.398 17.0649C121.335 17.2695 121.316 17.4852 121.343 17.6977V23.8087H117.956L117.935 13.4557Z" fill="#1D2130"/>
<path d="M31.4577 11.0093C31.4578 8.91945 30.8236 6.87831 29.6383 5.15323C28.4529 3.42814 26.7717 2.09953 24.8147 1.34142C22.8578 0.583315 20.7164 0.431063 18.671 0.904604C16.6256 1.37815 14.7716 2.4554 13.3519 3.99527H0.184082V31.6523H27.9863V18.7268C29.0776 17.7555 29.9507 16.5661 30.5489 15.2363C31.147 13.9066 31.4567 12.4662 31.4577 11.0093ZM26.1082 11.0093C26.1103 12.0107 25.8138 12.9902 25.2563 13.8239C24.6987 14.6575 23.9052 15.3078 22.9761 15.6925C22.047 16.0772 21.0241 16.1789 20.0369 15.9848C19.0497 15.7907 18.1425 15.3095 17.4302 14.6022C16.7179 13.8948 16.2325 12.993 16.0354 12.011C15.8383 11.029 15.9384 10.0108 16.3231 9.08544C16.7077 8.16005 17.3595 7.36901 18.1961 6.81244C19.0326 6.25586 20.0163 5.95877 21.0226 5.95877C22.3696 5.95877 23.6615 6.49054 24.615 7.43739C25.5684 8.38424 26.1054 9.66883 26.1082 11.0093ZM22.6369 26.3288H5.53351V9.31877H10.7458C10.6451 9.87681 10.5921 10.4423 10.5875 11.0093C10.5903 13.7626 11.6906 16.4023 13.647 18.3491C15.6033 20.296 18.2559 21.391 21.0226 21.3938C21.5635 21.3909 22.1033 21.3453 22.6369 21.2573V26.3288Z" fill="#1D2130"/>
</g>
</svg>
