<svg width="137" height="32" viewBox="0 0 137 32" fill="none" xmlns="http://www.w3.org/2000/svg">
<g opacity="0.6">
<path d="M33.177 7.92847H36.3423V23.2455H33.177V7.92847Z" fill="#1D2130"/>
<path d="M38.1149 17.9985C38.115 16.8964 38.4406 15.8193 39.0507 14.9034C39.6608 13.9876 40.5278 13.2743 41.5418 12.8541C42.5559 12.4338 43.6713 12.3255 44.7467 12.5428C45.822 12.7601 46.809 13.2933 47.5824 14.0748C48.3558 14.8562 48.8809 15.8508 49.091 16.9324C49.3012 18.014 49.187 19.1339 48.7628 20.1502C48.3387 21.1665 47.6238 22.0334 46.7087 22.6411C45.7936 23.2487 44.7195 23.5698 43.6226 23.5635C42.8951 23.5692 42.1737 23.4289 41.5009 23.1508C40.828 22.8728 40.2172 22.4626 39.7042 21.9443C39.1912 21.4259 38.7864 20.8099 38.5135 20.1324C38.2406 19.4548 38.1051 18.7293 38.1149 17.9985ZM46.0494 17.9985C46.0369 17.5234 45.8853 17.0625 45.6135 16.6735C45.3418 16.2845 44.9618 15.9847 44.5213 15.8115C44.0808 15.6383 43.5992 15.5994 43.1368 15.6997C42.6744 15.8 42.2517 16.0351 41.9216 16.3755C41.5914 16.7158 41.3685 17.1465 41.2807 17.6135C41.1929 18.0805 41.2441 18.5631 41.4279 19.001C41.6117 19.4389 41.9199 19.8127 42.314 20.0756C42.7082 20.3384 43.1707 20.4787 43.6437 20.4789C43.9658 20.4852 44.2857 20.4247 44.5835 20.3011C44.8812 20.1776 45.1504 19.9937 45.3742 19.7609C45.598 19.5281 45.7716 19.2514 45.8842 18.9482C45.9967 18.6449 46.0458 18.3216 46.0283 17.9985H46.0494Z" fill="#1D2130"/>
<path d="M61.6546 12.7515V22.7261C61.6546 26.2453 58.9113 27.7399 56.1363 27.7399C55.1575 27.8206 54.1757 27.6252 53.3015 27.1757C52.4272 26.7263 51.6952 26.0406 51.1878 25.1959L53.8573 23.6483C54.0736 24.0864 54.4177 24.4479 54.8437 24.6846C55.2697 24.9214 55.7574 25.022 56.2418 24.9733C56.5504 25.0115 56.8636 24.9807 57.159 24.8831C57.4543 24.7855 57.7246 24.6236 57.9504 24.4089C58.1762 24.1942 58.352 23.932 58.4652 23.6411C58.5784 23.3502 58.6263 23.0377 58.6053 22.7261V21.7615C58.2369 22.2101 57.7696 22.5664 57.2402 22.8019C56.7109 23.0374 56.1343 23.1457 55.556 23.1183C54.1568 23.1183 52.815 22.5599 51.8256 21.5659C50.8362 20.572 50.2804 19.2239 50.2804 17.8183C50.2804 16.4126 50.8362 15.0645 51.8256 14.0706C52.815 13.0767 54.1568 12.5183 55.556 12.5183C56.1343 12.4908 56.7109 12.5991 57.2402 12.8346C57.7696 13.0702 58.2369 13.4264 58.6053 13.8751V12.8151L61.6546 12.7515ZM58.6053 17.7865C58.6263 17.2793 58.4959 16.7775 58.2307 16.3454C57.9656 15.9133 57.5779 15.5708 57.1174 15.3619C56.6569 15.153 56.1448 15.0873 55.6468 15.1731C55.1489 15.259 54.6879 15.4925 54.3231 15.8437C53.9583 16.1949 53.7065 16.6477 53.5999 17.1439C53.4933 17.64 53.5369 18.1569 53.7251 18.6279C53.9133 19.099 54.2374 19.5027 54.6558 19.7872C55.0742 20.0718 55.5678 20.224 56.073 20.2245C56.4027 20.2483 56.7337 20.2024 57.0446 20.0898C57.3555 19.9772 57.6395 19.8002 57.8781 19.5705C58.1168 19.3407 58.3048 19.0632 58.43 18.7559C58.5553 18.4486 58.615 18.1184 58.6053 17.7865Z" fill="#1D2130"/>
<path d="M63.4377 17.9985C63.4377 16.8974 63.7628 15.821 64.3719 14.9056C64.9811 13.9902 65.8468 13.2769 66.8596 12.8561C67.8724 12.4352 68.9868 12.3256 70.0616 12.5412C71.1364 12.7568 72.1234 13.2878 72.8976 14.0672C73.6719 14.8465 74.1986 15.8391 74.4112 16.9193C74.6237 17.9995 74.5125 19.1188 74.0917 20.1354C73.6708 21.1521 72.9591 22.0205 72.0468 22.6307C71.1345 23.241 70.0625 23.5656 68.9664 23.5635C68.2375 23.5706 67.5146 23.4314 66.8399 23.1541C66.1652 22.8768 65.5524 22.467 65.0375 21.9487C64.5225 21.4304 64.1158 20.814 63.8411 20.1356C63.5663 19.4573 63.4292 18.7307 63.4377 17.9985ZM71.3721 17.9985C71.3596 17.5229 71.2078 17.0616 70.9355 16.6724C70.6632 16.2832 70.2827 15.9834 69.8416 15.8105C69.4004 15.6376 68.9183 15.5994 68.4556 15.7006C67.993 15.8017 67.5703 16.0378 67.2406 16.3793C66.9109 16.7207 66.6888 17.1523 66.6022 17.62C66.5156 18.0877 66.5683 18.5706 66.7537 19.0084C66.9391 19.4461 67.249 19.8191 67.6445 20.0807C68.04 20.3423 68.5035 20.4808 68.977 20.4789C69.2991 20.4852 69.619 20.4247 69.9168 20.3011C70.2145 20.1776 70.4837 19.9937 70.7075 19.7609C70.9313 19.5281 71.1049 19.2514 71.2174 18.9482C71.33 18.6449 71.379 18.3216 71.3616 17.9985H71.3721Z" fill="#1D2130"/>
<path d="M75.9619 9.94241C75.9619 9.56924 76.0721 9.20444 76.2784 8.89416C76.4848 8.58388 76.7781 8.34204 77.1213 8.19923C77.4645 8.05643 77.8421 8.01906 78.2064 8.09187C78.5707 8.16467 78.9054 8.34437 79.168 8.60824C79.4307 8.87212 79.6096 9.20831 79.682 9.57432C79.7545 9.94032 79.7173 10.3197 79.5751 10.6645C79.433 11.0092 79.1923 11.3039 78.8834 11.5112C78.5746 11.7186 78.2115 11.8292 77.84 11.8292C77.3436 11.8237 76.8691 11.6231 76.5181 11.2705C76.167 10.9178 75.9674 10.4411 75.9619 9.94241ZM76.2679 12.7514H79.4332V23.2454H76.2679V12.7514Z" fill="#1D2130"/>
<path d="M92.9809 17.9985C93.0163 18.6964 92.9141 19.3945 92.68 20.0525C92.4459 20.7106 92.0845 21.3156 91.6168 21.8328C91.149 22.3501 90.584 22.7692 89.9544 23.0663C89.3248 23.3633 88.6429 23.5323 87.948 23.5635C87.3583 23.6029 86.7673 23.508 86.2192 23.2859C85.6712 23.0639 85.1801 22.7203 84.7826 22.2809V27.4643H81.6173V12.7515H84.7826V13.7373C85.1806 13.2992 85.672 12.9572 86.2202 12.7369C86.7684 12.5166 87.359 12.4238 87.948 12.4653C88.6401 12.4966 89.3193 12.6646 89.9468 12.9596C90.5742 13.2546 91.1378 13.6709 91.6051 14.1847C92.0724 14.6985 92.4345 15.2998 92.6705 15.9541C92.9066 16.6085 93.012 17.3032 92.9809 17.9985ZM89.8155 17.9985C89.803 17.5062 89.6462 17.0285 89.3647 16.6254C89.0831 16.2222 88.6894 15.9115 88.2328 15.7322C87.7763 15.5529 87.2772 15.513 86.7981 15.6174C86.3191 15.7219 85.8814 15.9661 85.5399 16.3194C85.1983 16.6727 84.9682 17.1194 84.8784 17.6035C84.7885 18.0876 84.8429 18.5877 85.0347 19.0409C85.2265 19.4941 85.5471 19.8804 85.9565 20.1512C86.3659 20.4221 86.8458 20.5656 87.336 20.5637C87.6718 20.578 88.0067 20.5209 88.319 20.396C88.6312 20.2711 88.9137 20.0814 89.1478 19.8392C89.3819 19.5969 89.5624 19.3077 89.6775 18.9905C89.7926 18.6733 89.8396 18.3352 89.8155 17.9985Z" fill="#1D2130"/>
<path d="M102.614 20.0972C102.614 22.514 100.504 23.5422 98.267 23.5422C97.3546 23.6247 96.4387 23.4305 95.6374 22.9845C94.8361 22.5386 94.1864 21.8614 93.7722 21.0406L96.4944 19.493C96.6022 19.8713 96.8361 20.2008 97.1568 20.4266C97.4775 20.6523 97.8657 20.7606 98.2564 20.7332C99.0055 20.7332 99.3854 20.5 99.3854 20.076C99.3854 18.9206 94.247 19.5354 94.247 15.8996C94.247 13.61 96.1673 12.4652 98.3408 12.4652C99.167 12.4281 99.9878 12.6164 100.716 13.0102C101.444 13.404 102.053 13.9886 102.477 14.7018L99.7547 16.1434C99.6344 15.87 99.4379 15.6374 99.1889 15.4737C98.9398 15.3101 98.6489 15.2224 98.3514 15.2212C97.8027 15.2212 97.4756 15.4332 97.4756 15.8042C97.4756 17.0126 102.614 16.2176 102.614 20.0972Z" fill="#1D2130"/>
<path d="M114.083 12.7515V23.2455H110.918V22.2597C110.558 22.6961 110.102 23.0414 109.585 23.2679C109.068 23.4944 108.505 23.5956 107.942 23.5635C105.832 23.5635 104.028 22.0477 104.028 19.2175V12.7515H107.193V18.7405C107.168 18.9909 107.198 19.2437 107.28 19.4815C107.362 19.7193 107.494 19.9364 107.667 20.1178C107.841 20.2993 108.052 20.4407 108.285 20.5323C108.518 20.6239 108.768 20.6636 109.019 20.6485C110.158 20.6485 110.96 19.9701 110.96 18.5285V12.7515H114.083Z" fill="#1D2130"/>
<path d="M132.02 16.8006V23.2454H128.855V17.0762C128.855 16.0162 128.359 15.359 127.356 15.359C126.354 15.359 125.721 16.0904 125.721 17.3306V23.2454H122.556V17.0762C122.556 16.0162 122.06 15.359 121.057 15.359C120.055 15.359 119.422 16.0904 119.422 17.3306V23.2454H116.257V12.7514H119.422V13.716C119.75 13.2899 120.178 12.9524 120.668 12.734C121.158 12.5157 121.694 12.4233 122.229 12.4652C122.764 12.4372 123.297 12.5495 123.776 12.7911C124.255 13.0326 124.664 13.3952 124.961 13.8432C125.309 13.3752 125.769 13.0033 126.299 12.7623C126.828 12.5213 127.41 12.4191 127.989 12.4652C130.458 12.4652 132.02 14.1824 132.02 16.8006Z" fill="#1D2130"/>
<path d="M14.3221 5.17248V0.66748H0.183594V31.6195H14.3221V27.1145C11.4258 27.1145 8.64819 25.9586 6.60021 23.9011C4.55223 21.8437 3.40169 19.0532 3.40169 16.1435C3.40169 13.2338 4.55223 10.4433 6.60021 8.38581C8.64819 6.32835 11.4258 5.17248 14.3221 5.17248Z" fill="#1D2130"/>
<path d="M14.3221 5.17248V27.1145C17.2184 27.1145 19.996 25.9586 22.044 23.9011C24.0919 21.8437 25.2425 19.0532 25.2425 16.1435C25.2425 13.2338 24.0919 10.4433 22.044 8.38581C19.996 6.32835 17.2184 5.17248 14.3221 5.17248Z" fill="#1D2130"/>
<path d="M134.679 12.6879C135.961 12.6879 137 11.6438 137 10.3559C137 9.06792 135.961 8.02385 134.679 8.02385C133.397 8.02385 132.358 9.06792 132.358 10.3559C132.358 11.6438 133.397 12.6879 134.679 12.6879Z" fill="#1D2130"/>
</g>
</svg>
